<?xml version="1.0" encoding="utf-8"?>
<!-- Generator: Adobe Illustrator 16.0.0, SVG Export Plug-In . SVG Version: 6.00 Build 0)  -->
<!DOCTYPE svg PUBLIC "-//W3C//DTD SVG 1.1//EN" "http://www.w3.org/Graphics/SVG/1.1/DTD/svg11.dtd">
<svg version="1.1" id="Layer_1" xmlns="http://www.w3.org/2000/svg" xmlns:xlink="http://www.w3.org/1999/xlink" x="0px" y="0px"
	 width="474.684px" height="178.516px" viewBox="0 0 474.684 178.516" enable-background="new 0 0 474.684 178.516"
	 xml:space="preserve">
<g>
	<g>
		<g>
			<defs>
				<path id="SVGID_1_" d="M73.125,87.169c-9.498,0-17.214,7.729-17.214,17.205c0,9.501,7.716,17.224,17.214,17.224
					c9.499,0,17.225-7.723,17.225-17.224C90.35,94.898,82.625,87.169,73.125,87.169z M73.125,45.09
					c-32.699,0-59.295,26.599-59.295,59.284c0,32.706,26.596,59.295,59.295,59.295c32.706,0,59.305-26.589,59.305-59.295
					C132.431,71.689,105.832,45.09,73.125,45.09z M73.125,143.588c-21.62,0-39.198-17.585-39.198-39.214
					c0-21.611,17.578-39.179,39.198-39.179c21.618,0,39.207,17.567,39.207,39.179C112.332,126.003,94.744,143.588,73.125,143.588z
					 M73.125,1.222c-27.522,0-53.416,10.727-72.919,30.221c-0.275,0.284-0.275,0.731,0,1.009l14.912,14.926
					c0.131,0.131,0.311,0.206,0.494,0.206c0.195,0,0.371-0.075,0.503-0.206c15.248-15.268,35.492-23.649,57.01-23.649
					c44.465,0,80.652,36.18,80.652,80.646c0,21.519-8.397,41.767-23.648,57.012c-0.137,0.139-0.216,0.32-0.216,0.508
					c0,0.188,0.08,0.369,0.216,0.486l14.917,14.912c0.135,0.142,0.315,0.224,0.5,0.224c0.184,0,0.366-0.082,0.499-0.224
					c19.504-19.518,30.254-45.406,30.254-72.918C176.301,47.504,130.006,1.222,73.125,1.222z M474.615,28.938
					c-0.12-0.245-0.361-0.404-0.632-0.404h-24.682c-0.214,0-0.419,0.113-0.559,0.292l-31.56,41.197l-20.57-41.084
					c-0.121-0.245-0.362-0.404-0.625-0.404h-26.151c-0.248,0-0.477,0.132-0.61,0.354c-0.121,0.206-0.121,0.477-0.007,0.696
					l31.243,58.574l-48.13,60.307c-0.162,0.213-0.205,0.508-0.085,0.749c0.113,0.249,0.358,0.404,0.646,0.404h24.675
					c0.221,0,0.427-0.105,0.562-0.276l33.516-43.453l22.012,43.343c0.121,0.238,0.355,0.388,0.632,0.388h26.132
					c0.244,0,0.476-0.131,0.597-0.349c0.135-0.217,0.135-0.472,0.021-0.71l-32.613-61.041l46.102-57.836
					C474.693,29.466,474.736,29.186,474.615,28.938z M350.984,28.664h-23.566c-0.354,0-0.653,0.272-0.695,0.628l-15.559,119.483
					c-0.027,0.206,0.035,0.404,0.171,0.564c0.135,0.152,0.326,0.234,0.531,0.234h23.555c0.352,0,0.655-0.257,0.706-0.614
					l15.54-119.495c0.031-0.203-0.031-0.405-0.163-0.558C351.375,28.76,351.168,28.664,350.984,28.664z M314.663,29.342
					c-0.131-0.23-0.361-0.352-0.616-0.352h-24.874c-0.249,0-0.483,0.12-0.61,0.352L249.17,97.565l-21.62-68.099
					c-0.098-0.281-0.366-0.476-0.678-0.476h-25.288c-0.226,0-0.44,0.103-0.573,0.276c-0.126,0.195-0.165,0.431-0.085,0.649
					l40.426,119.257c0.096,0.256,0.318,0.443,0.6,0.465c0.018,0.019,0.048,0.019,0.077,0.019c0.237,0,0.475-0.136,0.599-0.338
					l72.029-119.26C314.784,29.832,314.791,29.562,314.663,29.342z"/>
			</defs>
			<clipPath id="SVGID_2_">
				<use xlink:href="#SVGID_1_"  overflow="visible"/>
			</clipPath>
			
				<linearGradient id="SVGID_3_" gradientUnits="userSpaceOnUse" x1="184.1721" y1="-47.3914" x2="305.3407" y2="285.5168" gradientTransform="matrix(1 0 0 -1 -8.3599 202.5708)">
				<stop  offset="0.0925" style="stop-color:#3665B0"/>
				<stop  offset="0.144" style="stop-color:#376CAF"/>
				<stop  offset="0.3889" style="stop-color:#398DB0"/>
				<stop  offset="0.5959" style="stop-color:#3DA6AE"/>
				<stop  offset="0.7547" style="stop-color:#40B6AA"/>
				<stop  offset="0.8462" style="stop-color:#40BDAA"/>
			</linearGradient>
			<rect x="-10.219" y="-15.236" clip-path="url(#SVGID_2_)" fill="url(#SVGID_3_)" width="493.233" height="197.488"/>
		</g>
	</g>
</g>
</svg>
